<?xml version="1.0" encoding="utf-8"?>
<!-- Generator: Adobe Illustrator 19.2.1, SVG Export Plug-In . SVG Version: 6.00 Build 0)  -->
<svg version="1.1" id="Camada_1" xmlns="http://www.w3.org/2000/svg" xmlns:xlink="http://www.w3.org/1999/xlink" x="0px" y="0px"
	 viewBox="0 0 122 121.7" style="enable-background:new 0 0 122 121.7;" xml:space="preserve">
<style type="text/css">
	.st0{fill:#73605F;}
	.st1{fill:#DFA892;}
	.st2{fill:#C8683C;}
	.st3{fill:#ECCDB0;}
	.st4{fill:#1D1522;}
	.st5{fill:#1E1625;}
	.st6{fill:#9B4B2E;}
	.st7{fill:#CB8B76;}
</style>
<g>
	<path class="st0" d="M120.2,61.1c-0.1,13.4-4.6,25.7-12.2,35.6c-0.3,0.4-0.6,0.8-0.9,1.2l0,0c-0.4,0.5-0.9,1.1-1.3,1.6
		c-0.5,0.5-0.9,1.1-1.4,1.6c0,0,0,0-0.1,0.1c-0.6,0.7-1.3,1.3-2,2c-4.5,4.3-9.6,7.9-15.3,10.6c-7.7,3.7-16.4,5.8-25.5,5.7
		c-9.1,0-17.8-2.2-25.5-5.9c-5.9-2.9-11.2-6.7-15.8-11.3c-0.4-0.5-0.9-0.9-1.3-1.4c-0.5-0.5-1-1.1-1.5-1.6c-0.4-0.4-0.7-0.9-1.1-1.3
		c-0.3-0.4-0.6-0.8-0.9-1.2c-0.2-0.2-0.3-0.4-0.5-0.6C7.5,86.1,3.2,73.9,3.2,60.6C3.3,28.3,29.6,2.2,61.9,2.3
		C94.3,2.4,120.4,28.7,120.2,61.1z"/>
	<g>
		<g>
			<path class="st1" d="M107.1,97.8L107.1,97.8c-0.4,0.5-0.9,1.1-1.4,1.6c-0.5,0.5-0.9,1.1-1.4,1.6c0,0,0,0-0.1,0.1
				c-0.6,0.7-1.3,1.3-2,2c-4.5,4.3-9.6,7.9-15.3,10.6c-7.7,3.7-16.4,5.8-25.5,5.7c-9.1,0-17.8-2.2-25.5-5.9
				c-5.9-2.9-11.2-6.7-15.8-11.3c-0.4-0.5-0.9-0.9-1.3-1.4c-0.5-0.5-1-1.1-1.5-1.6c-0.4-0.4-0.7-0.9-1.1-1.3
				c-0.3-0.4-0.6-0.8-0.9-1.2c2.1-3.8,4.1-5.9,5.4-7.2c0.8-0.8,13.8-5.4,21.6-8.2c3.2-1.2,5.5-2.1,5.8-2.3c0.2-1.4,0.4-3.3,0.6-5.4
				c0.6-7.1,1-16.7,1-16.7l22.5,1.5c0.1,0.3,0.3,9.4,0.7,15.4c0.2,2.7,0.4,4.8,0.6,5.1c0.8,0.4,4.2,1.8,8.5,3.5
				c7.8,3,18.3,7,19.9,7.9C103.4,90.7,105.6,94.6,107.1,97.8z"/>
			<path class="st2" d="M108.2,96.4c-0.3,0.4-0.6,0.8-0.9,1.2l0,0c-0.4,0.5-0.9,1.1-1.3,1.6c-0.5,0.5-0.9,1.1-1.4,1.6
				c0,0,0,0-0.1,0.1c-0.6,0.7-1.3,1.3-1.9,2c-4.4,4.3-9.6,7.9-15.2,10.7c-7.7,3.7-16.4,5.8-25.5,5.8c-9.1,0-17.8-2.1-25.5-5.8
				c-5.9-2.9-11.3-6.7-15.8-11.3c-0.5-0.5-0.9-0.9-1.3-1.4c-0.5-0.5-1-1.1-1.5-1.6c-0.4-0.4-0.7-0.9-1.1-1.3
				c-0.3-0.4-0.6-0.8-0.9-1.2c-0.2-0.2-0.3-0.4-0.5-0.6c1.6-2.5,4.6-6.9,5.8-7.7c1.8-1.1,25.9-9.5,25.9-9.5s-0.4-3.6,0.1-3.6
				c0.5,0,27.2-0.5,27.6-0.4C75,75,75,78,75,78s27.1,9.8,29.1,11.2C105.1,89.8,106.7,93.1,108.2,96.4z"/>
		</g>
		<g>
			<g>
				<path class="st1" d="M75.2,51c0-0.2,2.9-6.3,6.4-4.7c5.3,2.5-1,9.9-3.1,11.4c-2.8,2-5.4,1.3-5.4,1.3L75.2,51z"/>
				<path class="st1" d="M43.6,51.3c0-0.2-2.8-6.3-6.4-4.7c-5.4,2.5,0.9,9.9,3,11.4c2.8,2,5.4,1.3,5.4,1.3L43.6,51.3z"/>
				<path class="st3" d="M40.8,39.4c0,0,3.6,19,5,23.1c2.6,4.4,8,10,9.1,10.4c1.5,0.5,9.7,0.7,11.3,0c1.7-0.6,8.3-10.4,8.7-11.9
					c0.4-1.5,2.6-23.6,2.6-23.6s-10-6.5-13.2-7.4S40.8,39.4,40.8,39.4z"/>
			</g>
			<g>
				<path class="st4" d="M44.2,56.4l1.3,0.1l-1.6-9.2c0,0,2-0.6,2.3-1.3c0.3-0.6-0.8-7.2-1.5-8.3c-0.5-0.8-1.3-2-3.3-1.1
					c-2,0.8-3.3,3.6-3.6,5.3c-0.3,1.8,4.9,7.4,4.9,7.4L44.2,56.4z"/>
				<path class="st4" d="M75.7,56.4l-1.5,0.1l1.8-9.2c0,0-2-0.6-2.3-1.3c-0.3-0.6,0.8-7.2,1.5-8.3c0.5-0.8,1.3-2,3.3-1.1
					c2,0.8,3.3,3.6,3.6,5.3c0.3,1.8-4.9,7.4-4.9,7.4L75.7,56.4z"/>
				<path class="st4" d="M41,37.8c-0.1-0.3,0.3-7.4,2.6-9.1c2.3-1.6,25-5.6,30.7-3.1c5.7,2.6,7.4,14.3,6.5,14.5
					C79.8,40.4,42.8,41.3,41,37.8z"/>
			</g>
		</g>
		<g>
			<g>
				<path class="st5" d="M69.4,50.3c-0.5-0.9-1.6-1.1-2.4-0.6c-1.8,1.1-0.3,3.9,1.6,3C69.5,52.3,69.9,51.1,69.4,50.3z"/>
				<path class="st4" d="M68.9,44.8c-3.1-0.3-3.5,2.4-3.5,2.4s1.1-0.5,3.3-0.5c1.6,0,3.4,0.6,3.4,0.6S71.3,45.1,68.9,44.8z"/>
			</g>
			<g>
				<path class="st5" d="M54.2,50.6c-0.5-0.9-1.6-1.1-2.4-0.6c-1.8,1.1-0.3,3.9,1.6,3C54.3,52.6,54.7,51.5,54.2,50.6z"/>
				<path class="st4" d="M51.8,44.9c-2.3,0.2-3.1,2.5-3.1,2.5s1.8-0.6,3.4-0.6c2.2,0,3.3,0.5,3.3,0.5S54.8,44.6,51.8,44.9z"/>
			</g>
			<g>
				<path class="st6" d="M55.7,61.2c0.2,0,10,0,10,0s-1.1,3.7-5.1,3.6C56.6,64.7,55.7,61.2,55.7,61.2z"/>
				<path class="st7" d="M59.7,58.1c-0.3,0-0.7-0.1-0.9-0.4c-0.3-0.2-0.4-0.6-0.4-0.9l-0.2-9.5c0-0.3,0.2-0.5,0.5-0.5c0,0,0,0,0,0
					c0.3,0,0.5,0.2,0.5,0.5l0.2,9.5c0,0.1,0,0.2,0.1,0.2c0.1,0.1,0.1,0.1,0.2,0.1l2.9-0.1c0.3,0,0.5,0.2,0.5,0.5
					c0,0.3-0.2,0.5-0.5,0.5L59.7,58.1C59.7,58.1,59.7,58.1,59.7,58.1z"/>
			</g>
		</g>
	</g>
</g>
</svg>
