<?xml version="1.0" encoding="utf-8"?>
<!-- Generator: Adobe Illustrator 19.2.1, SVG Export Plug-In . SVG Version: 6.00 Build 0)  -->
<svg version="1.1" id="Camada_1" xmlns="http://www.w3.org/2000/svg" xmlns:xlink="http://www.w3.org/1999/xlink" x="0px" y="0px"
	 viewBox="0 0 122 121.7" style="enable-background:new 0 0 122 121.7;" xml:space="preserve">
<style type="text/css">
	.st0{fill:#73605F;}
	.st1{fill:#1E1625;}
	.st2{fill:#ECCDB0;}
	.st3{fill:#DFA892;}
	.st4{fill:#F4F0F5;}
	.st5{fill:#D8987E;}
	.st6{fill:#CA683A;}
	.st7{fill:#1D1522;}
	.st8{fill:#905344;}
	.st9{fill:#CB8B76;}
</style>
<g>
	<path class="st0" d="M120.1,60.6c0,15.4-6,29.5-15.8,40c-10.7,11.4-25.9,18.6-42.7,18.6c-17.6,0-33.4-7.8-44.2-20.1
		C8.4,88.7,3,75.3,3,60.6C3,28.3,29.2,2.1,61.5,2.1C93.9,2.1,120.1,28.3,120.1,60.6z"/>
	<g>
		<g>
			<path class="st1" d="M34.5,72.8c-0.2-0.6,3.8-24.3,3.8-24.3s-6.6-16.8,3.6-21.2c5.2-2.2,20.6-7.2,34.9-0.4
				c2.7,1.3,11.2,5,11.3,22.2c0.1,13.9,0.1,26.4,0.1,26.4S34.7,73.3,34.5,72.8z"/>
		</g>
		<g>
			<g>
				<path class="st2" d="M17.4,99c10.7,12.3,26.5,20.1,44.2,20.1c16.9,0,32.1-7.1,42.7-18.6c-2.3-7.3-12.2-11.7-18.5-14.6
					c-0.6-0.3-1.3-0.6-1.9-0.9c-0.4-0.2-0.8-0.4-1.2-0.6c-0.4-0.2-0.8-0.4-1.2-0.5c-0.6-0.3-1-0.5-1.4-0.7c-4.5-2.2-6.2-4.6-6.8-8.3
					c-0.3-1.7-0.4-4.6-0.3-7.8c0.3-9,1.7-21.1,1.7-21.1L52.8,56.5c0,0,0,10.5-0.6,17.1c-0.2,2.7-0.6,4.7-1.1,5.1
					c-0.9,0.7-3.8,2-7,3.4c-0.3,0.1-0.7,0.3-1,0.4c-0.4,0.2-0.9,0.4-1.3,0.6c-2.6,1.1-5,2.2-6.4,2.8c-5.4,2.6-11.2,5.3-12.8,6.9
					C20.9,94.6,18.5,96.4,17.4,99z"/>
				<path class="st3" d="M74.7,46.1c0,0-1.4,12.1-1.7,21.1c-2.2,2.2-5.2,4.7-8.1,5.8c-4,1.6-9.6,1.1-12.8,0.6
					c0.6-6.6,0.6-17.1,0.6-17.1L74.7,46.1z"/>
			</g>
		</g>
		<g>
			<g>
				<path class="st3" d="M75.5,50.4c0.1-0.2,2.5-7,6.8-5.5c4.4,1.6-0.7,11.9-3.1,13.1c-2.4,1.2-5.4-0.3-5.7-2
					C73.3,54.4,75.5,50.4,75.5,50.4z"/>
				<g>
					<path class="st2" d="M42.8,34.8c0,0,0.8,29.1,6,33.3c6.5,5.2,20.6-2,23.1-4c2.8-2.2,5.4-23.3,5.4-23.3l-6.4-11.4
						C70.9,29.3,46.9,30.2,42.8,34.8z"/>
				</g>
			</g>
			<path class="st1" d="M75.4,53.5c0,0-5.5-10.8-5.4-14.8c0.1-4,1.1-4.4,1.1-4.4S54.3,39.8,51,41.2c-8,3.4-9.1,11.1-9,10.6
				c0.1-0.5-3.5-15.1,0-19.4c3.5-4.4,27-8.5,30.5-6.9c3.5,1.6,9.3,10.6,7.5,17.6C78.2,50,75.4,53.5,75.4,53.5z"/>
		</g>
		<g>
			<path class="st4" d="M17.4,99c0.9,1,1.8,2,2.7,2.9c1.2,1.2,2.5,2.4,3.8,3.5c2.4,2,5,3.9,7.7,5.5c2.2,1.3,4.4,2.5,6.8,3.5
				c7.1,3.1,14.9,4.8,23.2,4.8c8.2,0,16.1-1.7,23.2-4.8c2.4-1,4.6-2.2,6.8-3.5c2.7-1.6,5.3-3.5,7.7-5.5c1.3-1.1,2.6-2.3,3.8-3.5
				c0.4-0.4,0.9-0.9,1.3-1.3c-0.5-1.5-1.3-2.9-2.3-4.1c-1-1.3-2.3-2.4-3.6-3.5c-2.9-2.2-6.3-4-9.4-5.5c-1.1-0.5-2.2-1-3.2-1.5
				c-1.1-0.5-2.1-1-3.1-1.4c-0.5,0.9-1.1,1.9-1.9,2.9c-1.3,1.8-3,3.8-5.2,5.5c-1.8,1.4-3.8,2.6-6.2,3.5c-2.5,0.9-5.3,1.4-8.5,1.4
				c-2.3,0-4.3-0.5-6.2-1.4c-1.9-0.9-3.6-2.1-5-3.5c-1.7-1.7-3.1-3.6-4.2-5.5c-1-1.7-1.8-3.4-2.4-4.9c-3,1.3-6.1,2.6-7.7,3.4
				c-1,0.5-2,1-3,1.5c-4.4,2.1-8.5,4.2-9.8,5.5c-1.1,1.1-2.4,2.2-3.5,3.5C18.4,97.2,17.8,98,17.4,99z"/>
			<path class="st5" d="M38.4,114.3c7.1,3.1,14.9,4.8,23.2,4.8c8.2,0,16.1-1.7,23.2-4.8H38.4z"/>
			<path class="st5" d="M75.6,92.9h22.8c-2.9-2.2-6.3-4-9.4-5.5h-8.2C79.5,89.2,77.8,91.2,75.6,92.9z"/>
			<path class="st5" d="M22.6,92.9h27.1c-1.7-1.7-3.1-3.6-4.2-5.5H32.4C28,89.6,23.9,91.6,22.6,92.9z"/>
			<path class="st5" d="M17.4,99c0.9,1,1.8,2,2.7,2.9H103c0.4-0.4,0.9-0.9,1.3-1.3c-0.5-1.5-1.3-2.9-2.3-4.1H19
				C18.4,97.2,17.8,98,17.4,99z"/>
			<path class="st5" d="M23.9,105.4c2.4,2,5,3.9,7.7,5.5h60c2.7-1.6,5.3-3.5,7.7-5.5H23.9z"/>
			<path class="st6" d="M41.7,83.1c1.6,4.6,6.5,15.2,17.5,16.1c10.2,0.9,18.9-4,24.6-14.2c-0.4-0.2-0.8-0.4-1.2-0.6
				c-0.4-0.2-0.8-0.4-1.2-0.5C79.6,87,74.4,94,64.1,95.8c-11.7,2-17.6-8.5-20-13.7c-0.3,0.1-0.7,0.3-1,0.4
				C42.6,82.7,42.2,82.9,41.7,83.1z"/>
		</g>
		<g>
			<g>
				<path class="st1" d="M50.6,48.8c-2,0.9-3.4-1.9-1.6-3c0.8-0.5,1.9-0.3,2.4,0.6C51.8,47.2,51.4,48.3,50.6,48.8z"/>
				<path class="st7" d="M49.8,40.6c-2.3,0.2-3.1,2.5-3.1,2.5s1.8-0.6,3.4-0.6c2.2,0,3.3,0.5,3.3,0.5S52.9,40.3,49.8,40.6z"/>
			</g>
			<g>
				<path class="st1" d="M65.8,48.4c-2,0.9-3.4-1.9-1.6-3c0.8-0.5,1.9-0.3,2.4,0.6C67,46.8,66.6,47.9,65.8,48.4z"/>
				<path class="st7" d="M66,40.5c-3.1-0.3-3.5,2.4-3.5,2.4s1.1-0.5,3.3-0.5c1.6,0,3.4,0.6,3.4,0.6S68.3,40.8,66,40.5z"/>
			</g>
			<g>
				<path class="st8" d="M52.6,57.4l10.9-0.3c0,0-1.5,3.8-5.2,4.2C53.3,61.8,52.6,57.4,52.6,57.4z"/>
				<path class="st9" d="M56.8,53.8c-0.3,0-0.7-0.1-0.9-0.4c-0.3-0.2-0.4-0.6-0.4-0.9L55.3,43c0-0.3,0.2-0.5,0.5-0.5
					c0.3,0,0.5,0.2,0.5,0.5l0.2,9.5c0,0.1,0,0.2,0.1,0.2c0.1,0.1,0.1,0.1,0.2,0.1l2.9-0.1c0.3,0,0.5,0.2,0.5,0.5
					c0,0.3-0.2,0.5-0.5,0.5L56.8,53.8C56.9,53.8,56.9,53.8,56.8,53.8z"/>
			</g>
		</g>
	</g>
</g>
</svg>
