<?xml version="1.0" encoding="utf-8"?>
<!-- Generator: Adobe Illustrator 19.2.1, SVG Export Plug-In . SVG Version: 6.00 Build 0)  -->
<svg version="1.1" id="Camada_1" xmlns="http://www.w3.org/2000/svg" xmlns:xlink="http://www.w3.org/1999/xlink" x="0px" y="0px"
	 viewBox="0 0 122 121.7" style="enable-background:new 0 0 122 121.7;" xml:space="preserve">
<style type="text/css">
	.st0{fill:#1E1625;}
	.st1{fill:#ECCDB0;}
	.st2{fill:#DFA892;}
	.st3{fill:#C8683C;}
	.st4{fill:#F4F0F5;}
	.st5{fill:#E2B26D;}
	.st6{fill:#9B4B2E;}
	.st7{fill:#CB8B76;}
</style>
<g>
	<path class="st0" d="M1.6,60.5c0,13.1,4.3,25.2,11.6,35c0.4,0.5,0.7,1,1.1,1.5c1,1.2,2,2.4,3,3.5C28,111.9,43.2,119,60.1,119
		c17.6,0,33.4-7.8,44.2-20.1c1.2-1.4,2.3-2.8,3.3-4.2c6.9-9.6,11-21.4,11-34.2C118.6,28.2,92.4,2,60.1,2C27.8,2,1.6,28.2,1.6,60.5z"
		/>
	<g>
		<g>
			<g>
				<path class="st1" d="M107.6,94.7c-1,1.5-2.2,2.9-3.3,4.2c-5.5,6.3-12.4,11.5-20.2,15c-7.3,3.3-15.4,5.1-24,5.1
					c-16.9,0-32.1-7.1-42.7-18.6c-1-1.1-2.1-2.3-3-3.5c0.8-4.3,1.9-8.7,2.9-9.9c1.7-2.2,15.5-5.8,22.9-8.5c2.1-0.8,3.7-1.5,4.3-2.1
					c1.3-1.3,1.7-7.5,1.8-13c0.1-5-0.1-9.4-0.1-9.4c4.8-0.3,23,3.3,22.6,9.9c-0.2,2.9-0.1,5.4,0.3,7.6c0.5,2.7,1.5,4.8,3.2,6.2
					c0.6,0.5,1.8,1,3.5,1.5c7.4,2.4,23.3,5.5,25.2,7C102.6,87.5,105.6,91.8,107.6,94.7z"/>
				<path class="st2" d="M46.2,63.6c0.5,0.8,1.1,1.5,1.7,2.2c5.8,5.8,15.9,6.1,21.2,5.9c-0.4-2.1-0.5-4.7-0.3-7.6
					c0.3-6.7-17.8-10.2-22.6-9.9C46.1,54.1,46.3,58.6,46.2,63.6z"/>
			</g>
			<g>
				<g>
					<path class="st2" d="M46.1,50.4c-0.1-0.2-2.5-7-6.8-5.5c-4.4,1.6,1,9.9,3.3,11.1c2.4,1.2,5.2,1.7,5.4,0
						C48.3,54.4,46.1,50.4,46.1,50.4z"/>
					<g>
						<path class="st2" d="M75.8,49.1c0,0,1.9-5,5-4.6c3.8,0.5,2.5,8.6-1.9,11.2c-4.2,2.5-4.1-1-4.1-1L75.8,49.1z"/>
						<path class="st3" d="M79.6,31.4c0,0,2.9,5.5,3.6,9C84,43.8,76,52,75.6,51.3C75.2,50.5,76,32.8,76,32.8L79.6,31.4z"/>
						<path class="st1" d="M78.8,34.7c0,0-2.5,28.5-6.6,31.6c-5.1,3.8-20.6-1.6-23-3.5c-2.8-2.2-5.7-29.6-5.7-29.6
							S74.7,28.4,78.8,34.7z"/>
					</g>
				</g>
				<path class="st3" d="M44.2,49.8c0.7,0.8,2,0.5,2.4-0.5c0.7-1.8,2-5.6,1.1-8.3c-1.1-3.8-2.5-5.3-2.5-5.3s24.2,2.4,33.6-0.9
					c4.4-1.6,3.7-5.6,1.4-6.3s-30.2-13-37.1-2.5C37.6,34.4,41.2,46.5,44.2,49.8z"/>
			</g>
			<g>
				<path class="st4" d="M107.6,94.7c-1,1.5-2.2,2.9-3.3,4.2C93.5,111.2,77.7,119,60.1,119c-4,0-8-0.4-11.8-1.2
					c-12.1-2.5-22.9-8.7-31-17.4c-1.5-1.6-2.9-3.2-4.2-5c1.5-3.7,3.1-7.3,4-8.4c1.4-1.8,11.5-4.7,19.1-7.2c1.4-0.5,2.7-0.9,3.8-1.3
					c3.6,5,8.7,9.6,15.9,10c10,0.6,16.4-5.1,19.8-9.3c1.1,0.4,2.5,0.7,3.9,1.1c8,2.2,19.6,4.6,21.3,5.9
					C102.6,87.5,105.6,91.8,107.6,94.7z"/>
				<path class="st3" d="M36.3,79.9c3.3,6,9.4,12.6,20.3,12.5c14.5-0.1,20.8-7.8,23.1-12c-1.5-0.4-2.8-0.8-3.9-1.1
					c-3.4,4.3-9.8,9.9-19.8,9.3c-7.2-0.4-12.3-5-15.9-10C39,79,37.7,79.4,36.3,79.9z"/>
				<path class="st5" d="M48.3,117.8c-12.1-2.5-22.9-8.7-31-17.4c-1.5-1.6-2.9-3.2-4.2-5c1.5-3.7,3.1-7.3,4-8.4
					c1.4-1.8,11.5-4.7,19.1-7.2c1.4-0.5,2.7-0.9,3.8-1.3L48.3,117.8z"/>
				<path class="st5" d="M107.6,94.7c-1,1.5-2.2,2.9-3.3,4.2c-5.5,6.3-12.4,11.5-20.2,15l-8.3-34.6c7.4,2.4,23.3,5.5,25.2,7
					C102.6,87.5,105.6,91.8,107.6,94.7z"/>
			</g>
		</g>
		<g>
			<path class="st6" d="M69,57.4l-10.9-0.3c0,0,1.5,3.8,5.2,4.2C68.3,61.8,69,57.4,69,57.4z"/>
			<path class="st7" d="M64.8,53.8C64.8,53.8,64.8,53.8,64.8,53.8l-3-0.1c-0.3,0-0.5-0.2-0.5-0.5c0-0.3,0.2-0.5,0.5-0.5l2.9,0.1
				c0.1,0,0.2,0,0.2-0.1c0.1-0.1,0.1-0.1,0.1-0.2l0.2-9.5c0-0.3,0.2-0.5,0.5-0.5c0,0,0,0,0,0c0.3,0,0.5,0.2,0.5,0.5l-0.2,9.5
				c0,0.4-0.2,0.7-0.4,0.9C65.5,53.6,65.1,53.8,64.8,53.8z"/>
			<g>
				<path class="st0" d="M55.9,48.3c2,0.9,3.4-1.9,1.6-3c-0.8-0.5-1.9-0.3-2.4,0.6C54.7,46.8,55,47.9,55.9,48.3z"/>
				<path class="st6" d="M55.7,40.5c3.1-0.3,3.5,2.4,3.5,2.4s-1.1-0.5-3.3-0.5c-1.6,0-3.4,0.6-3.4,0.6S53.3,40.7,55.7,40.5z"/>
			</g>
			<g>
				<path class="st0" d="M71.1,48.7c2,0.9,3.4-1.9,1.6-3c-0.8-0.5-1.9-0.3-2.4,0.6C69.9,47.2,70.2,48.3,71.1,48.7z"/>
				<path class="st6" d="M72.5,40.7c2.3,0.2,3.1,2.5,3.1,2.5s-1.8-0.6-3.4-0.6c-2.2,0-3.3,0.5-3.3,0.5S69.4,40.4,72.5,40.7z"/>
			</g>
		</g>
	</g>
</g>
</svg>
