<?xml version="1.0" encoding="utf-8"?>
<!-- Generator: Adobe Illustrator 19.2.1, SVG Export Plug-In . SVG Version: 6.00 Build 0)  -->
<svg version="1.1" id="Camada_1" xmlns="http://www.w3.org/2000/svg" xmlns:xlink="http://www.w3.org/1999/xlink" x="0px" y="0px"
	 viewBox="0 0 122 121.7" style="enable-background:new 0 0 122 121.7;" xml:space="preserve">
<style type="text/css">
	.st0{fill:#E8C2B2;}
	.st1{fill:#905344;}
	.st2{fill:#784B42;}
	.st3{fill:#E6BEAE;}
	.st4{fill:#D8987E;}
	.st5{fill:#1E1625;}
	.st6{fill:#73605F;}
	.st7{fill:#F4F0F5;}
	.st8{fill:#1D1522;}
	.st9{fill:#A26765;}
</style>
<g>
	<path class="st0" d="M2.4,60c0,14.7,5.4,28.1,14.4,38.4c0.2,0.2,0.4,0.5,0.6,0.7c10.7,11.9,26.3,19.4,43.6,19.4
		c16.9,0,32.1-7.1,42.7-18.6c0.9-0.9,1.7-1.9,2.5-2.8c8.3-10.1,13.3-23,13.3-37.1c0-32.3-26.2-58.5-58.5-58.5
		C28.6,1.5,2.4,27.7,2.4,60z"/>
	<g>
		<g>
			<path class="st1" d="M106.6,97.1c-0.8,1-1.6,1.9-2.5,2.8c-10.7,11.4-25.9,18.6-42.7,18.6c-17.3,0-32.9-7.5-43.6-19.4
				c1.5-4.5,3-8.5,3.7-9.1c0.1-0.1,0.3-0.2,0.7-0.4c0.1,0,0.2-0.1,0.3-0.1c0.6-0.3,1.6-0.7,2.7-1.1c0.3-0.1,0.7-0.3,1-0.4
				c0.1,0,0.1,0,0.2-0.1c1.5-0.6,3.2-1.2,5.1-1.9c0.1,0,0.1,0,0.2-0.1c0.4-0.2,0.9-0.3,1.3-0.5c0.3-0.1,0.6-0.2,0.9-0.3
				c0.5-0.2,1.1-0.4,1.6-0.6c0.8-0.3,1.5-0.5,2.3-0.8c1.4-0.5,2.8-1,4.1-1.4c1.6-0.5,3-1,4.2-1.4c0,0,0,0,0,0
				c2.3-0.8,3.8-1.3,3.8-1.3l0.6-5.7l1.7-16.1L77,52.8c0,0,0.1,7.3,0.2,14.1c0.1,5.3,0.3,10.4,0.4,11.5c1,0.5,2.4,1.2,4.1,2
				c1,0.5,2.1,1,3.3,1.5c1.4,0.6,3,1.3,4.5,2c0.2,0.1,0.4,0.2,0.6,0.3c0.4,0.2,0.9,0.4,1.3,0.6c2.3,1,4.6,2,6.6,2.9
				c0.4,0.2,0.7,0.3,1,0.5c0.4,0.2,0.8,0.4,1.2,0.6c0.2,0.1,0.4,0.2,0.5,0.3c0.6,0.3,1.2,0.6,1.6,0.8c0.1,0.1,0.2,0.1,0.3,0.2
				c0.7,0.4,1.2,0.7,1.3,0.9C104.7,91.4,105.6,94.2,106.6,97.1z"/>
			<path class="st2" d="M50.5,73.8c2.8,0.4,6.2,0.4,10.3-0.3c7-1.2,12.8-4.2,16.4-6.5C77.1,60.1,77,52.8,77,52.8l-24.8,4.8
				L50.5,73.8z"/>
		</g>
		<g>
			<g>
				<path class="st3" d="M106.6,97.1c-0.8,1-1.6,1.9-2.5,2.8c-10.7,11.4-25.9,18.6-42.7,18.6c-17.3,0-32.9-7.5-43.6-19.4
					c1.5-4.5,3-8.5,3.7-9.1c0.1-0.1,0.3-0.2,0.7-0.4c0.1,0,0.2-0.1,0.3-0.1c0.6-0.3,1.6-0.7,2.7-1.2c0.3-0.1,0.7-0.2,1-0.4
					c0.1,0,0.1,0,0.2-0.1c1.5-0.6,3.2-1.2,5.1-1.9c0.1,0,0.1,0,0.2-0.1c0.4-0.2,0.9-0.3,1.3-0.5c0.3-0.1,0.6-0.2,0.9-0.3
					c0.5-0.2,1.1-0.4,1.6-0.6c0.8-0.3,1.5-0.5,2.3-0.8c1.4-0.5,2.8-1,4.1-1.4c0.5-0.2,1.1-0.4,1.6-0.5c0.3-0.1,0.6-0.2,0.9-0.3
					c0.4-0.1,0.8-0.3,1.1-0.4c0.2-0.1,0.4-0.1,0.6-0.2c0,0,0,0,0,0l9.7,4.2l8.5,3.7l9.8-4.7l7.6-3.6c0.8,0.4,1.6,0.7,2.5,1.1
					c0.3,0.1,0.5,0.2,0.8,0.3c1.4,0.6,3,1.3,4.5,2c0.2,0.1,0.4,0.2,0.6,0.3c0.4,0.2,0.9,0.4,1.3,0.6c2.3,1,4.6,2,6.6,2.9
					c0.4,0.2,0.7,0.3,1.1,0.5c0.4,0.2,0.8,0.4,1.2,0.6c0.2,0.1,0.4,0.2,0.5,0.3c0.6,0.3,1.2,0.6,1.6,0.8c0.1,0,0.2,0.1,0.3,0.2
					c0.7,0.4,1.2,0.7,1.3,0.9C104.7,91.4,105.6,94.2,106.6,97.1z"/>
				<polygon class="st4" points="74.1,84.1 64.3,99.8 55.7,85 64.3,88.7 				"/>
				<path class="st5" d="M106.6,97.1c-0.8,1-1.6,1.9-2.5,2.8c-10.7,11.4-25.9,18.6-42.7,18.6c-17.3,0-32.9-7.5-43.6-19.4
					c1.5-4.5,3-8.5,3.7-9.1c0.1-0.1,0.3-0.2,0.7-0.4c0.1,0,0.2-0.1,0.3-0.1c0.6-0.3,1.6-0.7,2.7-1.1c0.3-0.1,0.7-0.3,1-0.4
					c0.1,0,0.1,0,0.2-0.1c1.5-0.6,3.2-1.2,5.1-1.9c0.1,0,0.1,0,0.2-0.1c0.4-0.2,0.9-0.3,1.3-0.5c0.3-0.1,0.6-0.2,0.9-0.3
					c0.5-0.2,1.1-0.4,1.6-0.6c0.8-0.3,1.5-0.5,2.3-0.8c1.4-0.5,2.8-1,4.1-1.4c0.5-0.2,1.1-0.4,1.6-0.5c0.9-0.3,1.8-0.6,2.6-0.9
					L65.5,108l16.2-27.5c0.8,0.4,1.6,0.7,2.5,1.1c0.3,0.1,0.5,0.2,0.8,0.4c1.4,0.6,3,1.3,4.5,2c0.2,0.1,0.4,0.2,0.6,0.3
					c0.4,0.2,0.9,0.4,1.3,0.6c2.3,1,4.6,2,6.6,2.9c0.4,0.2,0.7,0.3,1,0.5c0.4,0.2,0.8,0.4,1.2,0.6c0.2,0.1,0.4,0.2,0.5,0.3
					c0.6,0.3,1.2,0.6,1.6,0.8c0.1,0.1,0.2,0.1,0.3,0.2c0.7,0.4,1.2,0.7,1.3,0.9C104.7,91.4,105.6,94.2,106.6,97.1z"/>
				<path class="st6" d="M84.3,81.6l-19,33.3L43.4,81.7c0.9-0.3,1.8-0.6,2.6-0.9L65.5,108l16.2-27.5C82.5,80.8,83.4,81.2,84.3,81.6z
					"/>
			</g>
			<g>
				<path class="st7" d="M46,80.8l4.3-5.2l14,13.1c0,0-12.4,9.1-12.5,8.9C51.7,97.3,46,80.8,46,80.8z"/>
				<path class="st7" d="M81.7,80.5l-4.3,16.8l-13.1-8.6l13.4-10.3C78.6,79,80,79.7,81.7,80.5z"/>
			</g>
		</g>
		<g>
			<g>
				<g>
					<g>
						<path class="st2" d="M43.7,45.9c-0.2-0.4-1.6-1.9-4.3-1.1c-2.7,0.8-1.3,6.8,1,9.4c2.3,2.7,5.2,2.1,5.2,1.7
							C45.6,55.6,44.5,47.8,43.7,45.9z"/>
						<path class="st5" d="M40.7,33.4c0,0-2.6,8.8,0.4,13.5c3,4.8,5.8,5.3,5.8,5.3l-1.1-22.5L40.7,33.4z"/>
						<path class="st1" d="M42.6,34.2c0,0,0.8,29.1,6,33.3c6.5,5.2,20.6-2,23.1-4c2.8-2.2,5.4-23.3,5.4-23.3l-6.4-11.4
							C70.7,28.8,46.7,29.6,42.6,34.2z"/>
						<path class="st5" d="M68.9,30.2c0,0-31.2,12.2-33.4,11.1c-2.2-1.1,2-4.8,2-4.8s-10.2,1.6-8.4-1.3c1.8-2.9,8.8-4.9,8.8-4.9
							s-7.5-1.7-3.6-4.7c3.9-3.1,26.4-11,35.2-8c5.1,1.5,5.6,8.8,5.6,8.8s10.2,1.4,11.3,5.3c1.1,3.9-4.2,17.8-9.9,18.8
							C72.2,50.3,75,38.9,75,38.9s-3.8-0.8-5.1-2.5C68.8,34.8,68.9,30.2,68.9,30.2z"/>
					</g>
				</g>
			</g>
			<path class="st2" d="M75.3,49.9c0.1-0.2,2.5-7,6.8-5.5c4.4,1.6-0.7,10.2-3,11.5c-2,1.2-4.7,1-4.8,0.3
				C74,54.5,75.3,49.9,75.3,49.9z"/>
		</g>
		<g>
			<g>
				<path class="st2" d="M56.6,53.2c-0.3,0-0.7-0.1-0.9-0.4c-0.3-0.2-0.4-0.6-0.4-0.9l-0.2-9.5c0-0.3,0.2-0.5,0.5-0.5
					c0.2,0,0.5,0.2,0.5,0.5l0.2,9.5c0,0.1,0,0.2,0.1,0.2c0.1,0.1,0.1,0.1,0.2,0.1l2.9-0.1c0.2,0,0.5,0.2,0.5,0.5
					c0,0.3-0.2,0.5-0.5,0.5L56.6,53.2C56.7,53.2,56.6,53.2,56.6,53.2z"/>
				<g>
					<path class="st5" d="M66.3,45.4c-0.5-0.9-1.6-1.1-2.4-0.6c-1.8,1.1-0.3,3.9,1.6,3C66.4,47.4,66.7,46.2,66.3,45.4z"/>
					<path class="st8" d="M65.8,40c-3.1-0.3-3.5,2.4-3.5,2.4s1.1-0.5,3.3-0.5c1.6,0,3.4,0.6,3.4,0.6S68.1,40.2,65.8,40z"/>
				</g>
				<g>
					<path class="st5" d="M51.1,45.8c-0.5-0.9-1.6-1.1-2.4-0.6c-1.8,1.1-0.3,3.9,1.6,3C51.2,47.8,51.6,46.7,51.1,45.8z"/>
					<path class="st8" d="M49.6,40c-2.3,0.2-3.1,2.5-3.1,2.5s1.8-0.6,3.4-0.6c2.2,0,3.3,0.5,3.3,0.5S52.7,39.7,49.6,40z"/>
				</g>
			</g>
			<path class="st9" d="M53.7,57l10.9-0.3c0,0-1.5,3.8-5.2,4.2C54.4,61.4,53.7,57,53.7,57z"/>
		</g>
	</g>
</g>
</svg>
