<?xml version="1.0" encoding="utf-8"?>
<!-- Generator: Adobe Illustrator 19.2.1, SVG Export Plug-In . SVG Version: 6.00 Build 0)  -->
<svg version="1.1" id="Camada_1" xmlns="http://www.w3.org/2000/svg" xmlns:xlink="http://www.w3.org/1999/xlink" x="0px" y="0px"
	 viewBox="0 0 144 32" style="enable-background:new 0 0 144 32;" xml:space="preserve">
<style type="text/css">
	.st0{fill:#FFFFFF;}
</style>
<path class="st0" d="M27.1,12.9h4.5v7.9h3.1v-7.9h4.5v-2.6H27.1V12.9z"/>
<path class="st0" d="M40.6,20.8h3.2v-2.8h5c0.3,0,0.6,0,0.8,0.1c0.2,0.1,0.3,0.3,0.4,0.4c0.1,0.2,0.1,0.5,0.1,0.9v1.3h3.2V19
	c0-0.4,0-0.8-0.1-1.1c-0.1-0.3-0.2-0.5-0.4-0.7c-0.1-0.2-0.3-0.3-0.5-0.4c-0.2-0.1-0.4-0.1-0.7-0.2v0c0.4-0.1,0.7-0.2,0.9-0.4
	c0.2-0.1,0.4-0.3,0.5-0.6c0.1-0.2,0.2-0.4,0.3-0.7c0-0.3,0.1-0.6,0.1-1v-0.7c0-0.5,0-0.9-0.1-1.3c-0.1-0.4-0.3-0.7-0.5-1
	c-0.2-0.3-0.5-0.5-1-0.6c-0.4-0.1-0.9-0.2-1.5-0.2h-9.6V20.8z M43.8,12.9h4.9c0.3,0,0.6,0,0.8,0.1c0.2,0.1,0.4,0.1,0.5,0.3
	c0.1,0.1,0.1,0.4,0.1,0.7v0.3c0,0.3,0,0.4-0.1,0.6c-0.1,0.1-0.2,0.3-0.4,0.4c-0.2,0.1-0.4,0.1-0.7,0.1h-5.2V12.9z"/>
<path class="st0" d="M55.3,17.1c0,0.9,0.1,1.6,0.4,2.2c0.3,0.6,0.8,1,1.4,1.3c0.6,0.3,1.4,0.4,2.4,0.4H64c1,0,1.8-0.1,2.4-0.4
	c0.6-0.3,1.1-0.7,1.4-1.3c0.3-0.6,0.4-1.3,0.4-2.2v-6.8h-3.1v6.1c0,0.4,0,0.8-0.2,1.1c-0.1,0.3-0.3,0.5-0.5,0.6
	c-0.3,0.1-0.6,0.2-1,0.2h-3.1c-0.4,0-0.8-0.1-1-0.2c-0.3-0.1-0.4-0.3-0.5-0.6c-0.1-0.3-0.2-0.6-0.2-1.1v-6.1h-3.2V17.1z"/>
<path class="st0" d="M70.3,17.1c0,0.6,0.1,1.2,0.2,1.6c0.1,0.4,0.3,0.8,0.6,1.1c0.3,0.3,0.6,0.5,1,0.7c0.4,0.2,0.8,0.3,1.3,0.4
	c0.5,0.1,1,0.1,1.6,0.1H80c0.6,0,1.2,0,1.6-0.1c0.4-0.1,0.8-0.3,1.1-0.4c0.3-0.2,0.5-0.4,0.7-0.7c0.1-0.3,0.3-0.6,0.3-0.9
	c0.1-0.3,0.1-0.7,0.1-1v-1h-3.2c0,0.3,0,0.6-0.1,0.8c-0.1,0.2-0.1,0.3-0.3,0.4c-0.1,0.1-0.3,0.1-0.6,0.2c-0.3,0-0.5,0-0.9,0h-3.4
	c-0.4,0-0.7,0-0.9-0.1c-0.3-0.1-0.4-0.2-0.5-0.4c-0.1-0.2-0.2-0.4-0.3-0.7c0-0.3-0.1-0.6-0.1-1V15c0-0.3,0-0.6,0.1-0.9
	c0-0.3,0.1-0.5,0.3-0.7c0.1-0.2,0.3-0.3,0.6-0.4c0.3-0.1,0.6-0.1,1-0.1H79c0.3,0,0.6,0,0.8,0.1c0.2,0.1,0.4,0.1,0.5,0.3
	c0.1,0.1,0.2,0.3,0.2,0.6v0.3h3.2c0-0.5,0-0.9,0-1.3c0-0.4-0.1-0.7-0.3-1c-0.1-0.3-0.3-0.6-0.5-0.7c-0.2-0.2-0.5-0.4-0.9-0.5
	c-0.4-0.1-0.8-0.2-1.4-0.3c-0.5-0.1-1.2-0.1-1.9-0.1h-3.7c-0.6,0-1.1,0-1.6,0.1c-0.5,0.1-0.9,0.2-1.3,0.4c-0.4,0.2-0.7,0.4-1,0.7
	c-0.3,0.3-0.4,0.7-0.6,1.1c-0.1,0.4-0.2,1-0.2,1.6L70.3,17.1L70.3,17.1z"/>
<path class="st0" d="M85.8,20.8h3.1v-4h1.4l4.6,4h4.5l-6.3-5.4l5.6-5.2h-4.3l-4,3.9h-1.5v-3.9h-3.1V20.8z"/>
<path class="st0" d="M103.8,12.9h4.6c0.3,0,0.6,0,0.8,0.1c0.2,0.1,0.3,0.2,0.4,0.4c0.1,0.2,0.1,0.4,0.1,0.6v0.4c0,0.2,0,0.4-0.1,0.6
	c-0.1,0.2-0.2,0.3-0.3,0.4c-0.1,0.1-0.4,0.1-0.6,0.1h-4.9L103.8,12.9L103.8,12.9z M100.7,20.8h3.2v-2.6h6.3c0.4,0,0.8-0.1,1.2-0.2
	c0.3-0.1,0.6-0.3,0.8-0.5c0.2-0.2,0.4-0.5,0.5-0.8c0.1-0.3,0.2-0.6,0.3-0.9c0.1-0.3,0.1-0.6,0.1-1v-0.9c0-0.4,0-0.8-0.1-1.2
	c-0.1-0.4-0.2-0.7-0.4-1c-0.2-0.3-0.4-0.6-0.7-0.8c-0.3-0.2-0.7-0.4-1.1-0.5c-0.4-0.1-1-0.2-1.5-0.2h-8.6L100.7,20.8L100.7,20.8z"/>
<path class="st0" d="M119.9,12.7l2,3.9h-4.1L119.9,12.7z M112.3,20.8h3.5l0.9-1.9h6.4l1,1.9h3.5L122,10.3h-4.1L112.3,20.8z"/>
<path class="st0" d="M132.4,12.9h5.6c0.3,0,0.6,0,0.9,0.1c0.3,0.1,0.4,0.1,0.6,0.3c0.1,0.1,0.3,0.3,0.3,0.6c0.1,0.3,0.1,0.6,0.1,0.9
	v1.4c0,0.4,0,0.7-0.1,0.9s-0.2,0.4-0.3,0.6c-0.1,0.1-0.3,0.2-0.6,0.3c-0.3,0.1-0.5,0.1-0.9,0.1h-5.6V12.9z M129.2,20.8h9.6
	c0.8,0,1.5-0.1,2-0.2c0.5-0.1,1-0.4,1.3-0.6c0.3-0.3,0.6-0.7,0.7-1.2c0.1-0.4,0.2-1,0.2-1.7v-3.2c0-0.6-0.1-1.2-0.2-1.7
	s-0.4-0.9-0.7-1.2c-0.3-0.3-0.8-0.5-1.3-0.6c-0.5-0.1-1.2-0.2-2-0.2h-9.6V20.8z"/>
<path class="st0" d="M9.4,24.7c0.5,0,0.9,0.4,0.9,0.9c0,0.5-0.4,0.9-0.9,0.9c-0.5,0-0.9-0.4-0.9-0.9C8.4,25.1,8.9,24.7,9.4,24.7z"/>
<path class="st0" d="M15.1,7.2H3.5v16.6h11.6V7.2z"/>
<path class="st0" d="M3.5,0v3.6h4v3.6h-4v16.6h4v3.6H3c-1.6,0-3-1.3-3-3v-19V3.6V0H3.5z M15.8,3.6h-4.6v3.6h4v16.6h-4v1.6v2V31h3.5
	v-3.6h1.1c1.6,0,3-1.3,3-3V6.6C18.7,5,17.4,3.6,15.8,3.6z"/>
</svg>
