<?xml version="1.0" encoding="UTF-8"?> <svg xmlns="http://www.w3.org/2000/svg" width="144" height="32" viewBox="0 0 144 32" fill="none"><path d="M27.1047 12.9352H31.5673V20.8153H34.7131V12.9352H39.1757V10.2961H27.1047V12.9352Z" fill="#1D2122"></path><path d="M40.639 20.8154H43.8214V18.0648H48.7961C49.1253 18.0648 49.3814 18.102 49.5642 18.2135C49.7471 18.2879 49.8935 18.4737 49.9666 18.6596C50.0398 18.8826 50.0764 19.18 50.0764 19.5145V20.8154H53.2587V19.0313C53.2587 18.5852 53.2221 18.2507 53.1124 17.9533C53.0392 17.656 52.8929 17.433 52.7466 17.2843C52.6003 17.0984 52.4174 16.9869 52.1979 16.9126C51.9784 16.8382 51.759 16.7639 51.5395 16.7267V16.6895C51.9053 16.6152 52.1979 16.4665 52.4174 16.3178C52.6369 16.1692 52.8198 15.9833 52.9661 15.7603C53.0758 15.5373 53.1855 15.3142 53.2221 15.0169C53.2587 14.7195 53.2953 14.4222 53.2953 14.0505V13.3814C53.2953 12.8982 53.2587 12.4893 53.149 12.0804C53.0392 11.7087 52.8929 11.3742 52.6734 11.0768C52.454 10.8166 52.1248 10.5936 51.7224 10.4449C51.32 10.2963 50.8079 10.2219 50.2227 10.2219H40.639V20.8154ZM43.8214 12.9354H48.7595C49.0887 12.9354 49.3814 12.9725 49.6008 13.0097C49.8203 13.084 49.9666 13.1584 50.0764 13.3442C50.1861 13.4929 50.2227 13.7531 50.2227 14.0505V14.385C50.2227 14.6452 50.1861 14.831 50.1129 15.0169C50.0398 15.1656 49.8935 15.3142 49.7471 15.3886C49.5642 15.4629 49.3448 15.5001 49.0521 15.5001H43.8214V12.9354Z" fill="#1D2122"></path><path d="M55.2705 17.0611C55.2705 17.916 55.4168 18.6595 55.7095 19.217C56.0021 19.7746 56.4776 20.2206 57.0994 20.4808C57.7213 20.7782 58.526 20.8897 59.4771 20.8897H64.0128C64.9639 20.8897 65.7686 20.741 66.3904 20.4808C67.0123 20.1834 67.4878 19.7746 67.7804 19.217C68.0731 18.6595 68.2194 17.916 68.2194 17.0611V10.2961H65.1102V16.3921C65.1102 16.8381 65.0736 17.2098 64.9273 17.47C64.8176 17.7302 64.6347 17.9532 64.3786 18.0647C64.1226 18.1762 63.7568 18.2506 63.3544 18.2506H60.2086C59.7697 18.2506 59.4405 18.1762 59.1844 18.0647C58.9284 17.9532 58.7455 17.7302 58.6357 17.47C58.526 17.2098 58.4529 16.8381 58.4529 16.3921V10.2961H55.2705V17.0611Z" fill="#1D2122"></path><path d="M70.2677 17.1355C70.2677 17.7302 70.3409 18.2877 70.4506 18.7338C70.5969 19.1798 70.7798 19.5515 71.0359 19.8117C71.2919 20.1091 71.6211 20.3321 71.9869 20.4808C72.3527 20.6666 72.7916 20.7782 73.2672 20.8525C73.7427 20.9268 74.2548 20.964 74.84 20.964H79.9611C80.5829 20.964 81.1316 20.9268 81.5705 20.8153C82.0095 20.7038 82.3753 20.5551 82.6679 20.3693C82.9605 20.1834 83.18 19.9604 83.3263 19.7002C83.4726 19.44 83.5824 19.1427 83.6555 18.8453C83.7287 18.5108 83.7653 18.1762 83.7287 17.8417V16.8381H80.5463C80.5463 17.1726 80.5097 17.4328 80.4732 17.6187C80.4 17.8045 80.3269 17.9532 80.1805 18.0647C80.0342 18.1762 79.8513 18.2134 79.5953 18.2506C79.3392 18.2877 79.0466 18.2877 78.7174 18.2877H75.3521C74.9864 18.2877 74.6571 18.2506 74.4377 18.1762C74.1816 18.1019 73.9987 17.9904 73.889 17.8045C73.7427 17.6187 73.6695 17.4328 73.6329 17.1355C73.5964 16.8753 73.5598 16.5407 73.5598 16.169V15.0168C73.5598 14.6822 73.5964 14.3849 73.6329 14.1247C73.6695 13.8645 73.7793 13.6415 73.9256 13.4556C74.0719 13.2698 74.2548 13.1211 74.5474 13.0467C74.8035 12.9352 75.1327 12.8981 75.5716 12.8981H79.01C79.3392 12.8981 79.5953 12.9352 79.8148 12.9724C80.0342 13.0467 80.2171 13.1211 80.3269 13.2698C80.4366 13.4184 80.5098 13.6043 80.5098 13.8645V14.1618H83.6921C83.6921 13.6786 83.6921 13.2326 83.6555 12.8237C83.6189 12.452 83.5458 12.0803 83.3995 11.783C83.2897 11.4856 83.1068 11.2254 82.8508 11.0395C82.6313 10.8165 82.3021 10.6678 81.9363 10.5192C81.5705 10.4077 81.095 10.2961 80.5463 10.2218C79.9976 10.1475 79.3392 10.1475 78.6077 10.1475H74.8766C74.2914 10.1475 73.7793 10.1846 73.3037 10.259C72.8282 10.3333 72.3893 10.4448 72.0235 10.6307C71.6577 10.8165 71.3285 11.0395 71.0724 11.2997C70.8164 11.5971 70.6335 11.9688 70.4872 12.3777C70.3409 12.8237 70.3043 13.3441 70.3043 13.976V17.1355H70.2677Z" fill="#1D2122"></path><path d="M85.7767 20.8153H88.9225V16.8009H90.3491L94.9214 20.8153H99.384L93.1291 15.4628L98.7256 10.2961H94.4093L90.4222 14.1618H88.9225V10.2961H85.7767V20.8153Z" fill="#1D2122"></path><path d="M103.847 12.8981H108.493C108.822 12.8981 109.078 12.9352 109.261 13.0467C109.444 13.1211 109.59 13.2698 109.663 13.4184C109.736 13.6043 109.773 13.7901 109.773 14.0132V14.422C109.773 14.6451 109.736 14.8309 109.663 14.9796C109.59 15.1654 109.48 15.277 109.334 15.3885C109.188 15.5 108.968 15.5371 108.749 15.5371H103.811V12.8981H103.847ZM100.665 20.8153H103.847V18.1762H110.139C110.578 18.1762 110.98 18.1019 111.309 17.9904C111.639 17.8789 111.931 17.693 112.151 17.47C112.37 17.247 112.553 16.9868 112.699 16.6894C112.846 16.3921 112.919 16.0947 112.992 15.7602C113.065 15.4256 113.065 15.1283 113.065 14.7937V13.9017C113.065 13.4928 113.029 13.0839 112.955 12.7494C112.882 12.3777 112.772 12.0431 112.59 11.7458C112.407 11.4484 112.187 11.1882 111.931 10.9652C111.639 10.7422 111.273 10.5935 110.87 10.482C110.431 10.3705 109.919 10.2961 109.334 10.2961H100.701V20.8153H100.665Z" fill="#1D2122"></path><path d="M119.941 12.7494L121.99 16.6894H117.93L119.941 12.7494ZM112.297 20.8153H115.845L116.759 18.9568H123.197L124.185 20.8153H127.696L122.026 10.2961H117.893L112.297 20.8153Z" fill="#1D2122"></path><path d="M132.379 12.8981H138.012C138.341 12.8981 138.634 12.9353 138.89 12.9725C139.146 13.0468 139.329 13.1211 139.475 13.2698C139.621 13.4185 139.731 13.6044 139.804 13.8645C139.877 14.1247 139.914 14.4221 139.914 14.7938V16.2063C139.914 16.578 139.877 16.8753 139.804 17.1355C139.731 17.3957 139.621 17.5816 139.475 17.7303C139.329 17.8789 139.146 17.9533 138.89 18.0276C138.634 18.102 138.378 18.102 138.012 18.102H132.379V12.8981ZM129.196 20.8154H138.78C139.585 20.8154 140.243 20.7411 140.792 20.5924C141.34 20.4437 141.779 20.2207 142.109 19.9605C142.438 19.6631 142.694 19.2914 142.84 18.8082C142.986 18.3622 143.06 17.8046 143.06 17.1355V13.9389C143.06 13.307 142.986 12.7494 142.84 12.2662C142.694 11.783 142.438 11.4113 142.109 11.1139C141.779 10.8166 141.34 10.5936 140.792 10.4821C140.243 10.3334 139.585 10.259 138.78 10.259H129.196V20.8154Z" fill="#1D2122"></path><path fill-rule="evenodd" clip-rule="evenodd" d="M9.36405 24.6813C9.87616 24.6813 10.2785 25.0901 10.2785 25.6105C10.2785 26.1309 9.87616 26.5398 9.36405 26.5398C8.85195 26.5398 8.44958 26.1309 8.44958 25.6105C8.44958 25.1273 8.85195 24.6813 9.36405 24.6813Z" fill="#1D2122"></path><path d="M15.1438 7.24829H3.54834V23.8262H15.1438V7.24829Z" fill="#F2CF1D"></path><path fill-rule="evenodd" clip-rule="evenodd" d="M3.54814 0V3.60552H7.5718V7.21103H3.54814V23.789H7.5718V27.3945H2.96288C1.35341 27.3945 0 26.0564 0 24.3837V5.42686V3.60552V0H3.54814ZM15.7654 3.60552H11.1199V7.21103H15.1436V23.789H11.1199V25.3501V27.3945V31H14.6681V27.3945H15.7289C17.3383 27.3945 18.6917 26.0564 18.6917 24.3837V6.61631C18.6917 4.98081 17.3749 3.60552 15.7654 3.60552Z" fill="#1D2122"></path></svg> 